<svg width="46" height="46" viewBox="0 0 46 46" fill="none" xmlns="http://www.w3.org/2000/svg">
<g clip-path="url(#clip0_1_553)">
<path d="M44.0606 10.1498L23.2326 0.0669785C23.0479 -0.0223262 22.8329 -0.0223262 22.6484 0.0669785L1.82022 10.1498C1.58799 10.2622 1.44043 10.498 1.44043 10.7566V35.2434C1.44043 35.502 1.58799 35.7378 1.82022 35.8502L22.6483 45.933C22.7405 45.9777 22.8405 46 22.9404 46C23.0403 46 23.1402 45.9777 23.2326 45.933L44.0606 35.8502C44.2929 35.7378 44.4404 35.502 44.4404 35.2434V10.7567C44.4404 10.4979 44.2928 10.2623 44.0606 10.1498ZM22.9404 1.42209L42.2229 10.7566L36.6333 13.4625C36.5979 13.4355 36.5605 13.4105 36.5195 13.3906L17.3681 4.11965L22.9404 1.42209ZM15.8505 4.88153L35.1049 14.2025L31.1613 16.1115L11.9149 6.79439L15.8505 4.88153ZM35.5554 15.4808V22.5376L31.8718 24.3208V17.264L35.5554 15.4808ZM43.0965 34.8206L23.6124 44.2526V21.2623L28.26 19.0124C28.5942 18.8506 28.7343 18.4478 28.5729 18.1126C28.4116 17.7776 28.0099 17.6369 27.6756 17.7988L22.9404 20.0912L21.0772 19.1891C20.7429 19.0272 20.3413 19.1679 20.1799 19.503C20.0185 19.8381 20.1587 20.2409 20.4929 20.4028L22.2685 21.2623V44.2526L2.78436 34.8204V11.8301L17.6213 19.0127C17.7155 19.0583 17.815 19.0799 17.913 19.0799C18.1628 19.0799 18.4027 18.9396 18.5185 18.6989C18.6799 18.3637 18.5398 17.9609 18.2056 17.7991L3.658 10.7566L10.3333 7.52509L30.5186 17.2968C30.5215 17.3009 30.5248 17.3046 30.5279 17.3086V25.3945C30.5279 25.6264 30.6468 25.8419 30.8426 25.9652C30.9514 26.0337 31.0755 26.0683 31.2 26.0683C31.2996 26.0683 31.3995 26.0461 31.492 26.0013L36.5195 23.5675C36.7517 23.4551 36.8993 23.2194 36.8993 22.9607V14.8303L43.0965 11.8302V34.8206V34.8206Z" fill="#272343"/>
<path d="M8.34876 32.207L5.28374 30.7274C4.94844 30.5654 4.54576 30.7061 4.38395 31.0412C4.22214 31.3764 4.36266 31.7792 4.69778 31.941L7.7628 33.4206C7.85722 33.4663 7.95704 33.4879 8.05524 33.4879C8.30572 33.4879 8.54633 33.3475 8.66249 33.1068C8.82439 32.7716 8.68388 32.3689 8.34876 32.207Z" fill="#272343"/>
<path d="M11.1696 30.371L5.28795 27.5315C4.95275 27.3697 4.54998 27.5102 4.38817 27.8454C4.22645 28.1806 4.36697 28.5834 4.70208 28.7452L10.5837 31.5847C10.6781 31.6302 10.7779 31.6519 10.8761 31.6519C11.1266 31.6519 11.3672 31.5115 11.4834 31.2708C11.6452 30.9355 11.5047 30.5327 11.1696 30.371Z" fill="#272343"/>
</g>
<defs>
<clipPath id="clip0_1_553">
<rect width="46" height="46" fill="white"/>
</clipPath>
</defs>
</svg>
