<svg width="49" height="26" viewBox="0 0 49 26" fill="none" xmlns="http://www.w3.org/2000/svg">
<rect width="49" height="26" rx="4" fill="#01AD5A"/>
<path d="M18.6697 8.54545V18H17.3587L12.5529 11.0661H12.4652V18H11.0387V8.54545H12.359L17.1694 15.4886H17.2571V8.54545H18.6697ZM23.6959 18.1431C22.9973 18.1431 22.3956 17.9938 21.8909 17.6953C21.3892 17.3937 21.0015 16.9705 20.7275 16.4258C20.4567 15.878 20.3213 15.2363 20.3213 14.5007C20.3213 13.7744 20.4567 13.1342 20.7275 12.5803C21.0015 12.0263 21.3831 11.5939 21.8724 11.283C22.3648 10.9722 22.9404 10.8168 23.599 10.8168C23.9991 10.8168 24.3869 10.8829 24.7623 11.0153C25.1378 11.1476 25.4748 11.3554 25.7733 11.6385C26.0719 11.9216 26.3073 12.2894 26.4797 12.7418C26.652 13.1912 26.7382 13.7375 26.7382 14.3807V14.87H21.1015V13.8359H25.3856C25.3856 13.4728 25.3117 13.1512 25.164 12.8711C25.0162 12.5879 24.8085 12.3648 24.5407 12.2017C24.2761 12.0386 23.9652 11.957 23.6082 11.957C23.2204 11.957 22.8819 12.0524 22.5926 12.2433C22.3064 12.431 22.0848 12.6772 21.9278 12.9819C21.7739 13.2835 21.697 13.6113 21.697 13.9652V14.7731C21.697 15.247 21.7801 15.6502 21.9463 15.9826C22.1156 16.315 22.351 16.5689 22.6526 16.7443C22.9542 16.9167 23.3066 17.0028 23.7098 17.0028C23.9714 17.0028 24.2099 16.9659 24.4253 16.892C24.6408 16.8151 24.827 16.7012 24.9839 16.5504C25.1409 16.3996 25.2609 16.2134 25.344 15.9918L26.6505 16.2273C26.5458 16.612 26.3581 16.949 26.0873 17.2383C25.8195 17.5245 25.4825 17.7476 25.0763 17.9077C24.6731 18.0646 24.213 18.1431 23.6959 18.1431ZM29.7943 18L27.7077 10.9091H29.1341L30.5237 16.1165H30.593L31.9871 10.9091H33.4136L34.7986 16.0934H34.8678L36.2481 10.9091H37.6746L35.5926 18H34.1846L32.7442 12.8803H32.6381L31.1977 18H29.7943Z" fill="white"/>
</svg>
