<svg width="113" height="13" viewBox="0 0 113 13" fill="none" xmlns="http://www.w3.org/2000/svg">
<path d="M0.485999 12V0.799999H4.71C5.87267 0.799999 6.75267 1.072 7.35 1.616C7.94733 2.16 8.246 2.84267 8.246 3.664C8.246 4.37867 8.054 4.94933 7.67 5.376C7.286 5.792 6.822 6.07467 6.278 6.224C6.70467 6.30933 7.08333 6.48 7.414 6.736C7.75533 6.992 8.022 7.312 8.214 7.696C8.406 8.08 8.502 8.496 8.502 8.944C8.502 9.52 8.358 10.0427 8.07 10.512C7.79267 10.9707 7.382 11.3333 6.838 11.6C6.294 11.8667 5.62733 12 4.838 12H0.485999ZM2.182 5.6H4.502C5.15267 5.6 5.64867 5.45067 5.99 5.152C6.33133 4.84267 6.502 4.42133 6.502 3.888C6.502 3.36533 6.33133 2.94933 5.99 2.64C5.65933 2.33067 5.15267 2.176 4.47 2.176H2.182V5.6ZM2.182 10.608H4.614C5.29667 10.608 5.82467 10.448 6.198 10.128C6.582 9.808 6.774 9.36 6.774 8.784C6.774 8.208 6.57667 7.75467 6.182 7.424C5.78733 7.08267 5.254 6.912 4.582 6.912H2.182V10.608ZM11.161 12V0.799999H18.281V2.176H12.857V5.664H17.801V7.008H12.857V10.624H18.281V12H11.161ZM24.7976 12.192C23.9763 12.192 23.2563 12.048 22.6376 11.76C22.019 11.472 21.5336 11.0613 21.1816 10.528C20.8403 9.99467 20.6643 9.36 20.6536 8.624H22.4456C22.4563 9.22133 22.6643 9.728 23.0696 10.144C23.475 10.56 24.0456 10.768 24.7816 10.768C25.4323 10.768 25.939 10.6133 26.3016 10.304C26.675 9.984 26.8616 9.57867 26.8616 9.088C26.8616 8.69333 26.771 8.37333 26.5896 8.128C26.419 7.88267 26.179 7.68 25.8696 7.52C25.571 7.36 25.2243 7.216 24.8296 7.088C24.435 6.96 24.019 6.82133 23.5816 6.672C22.7176 6.384 22.067 6.01067 21.6296 5.552C21.203 5.09333 20.9896 4.49067 20.9896 3.744C20.979 3.11467 21.123 2.56533 21.4216 2.096C21.731 1.62667 22.1576 1.264 22.7016 1.008C23.2563 0.741333 23.9016 0.608 24.6376 0.608C25.363 0.608 25.9976 0.741333 26.5416 1.008C27.0963 1.27467 27.5283 1.648 27.8376 2.128C28.147 2.59733 28.307 3.14667 28.3176 3.776H26.5256C26.5256 3.488 26.451 3.216 26.3016 2.96C26.1523 2.69333 25.9336 2.47467 25.6456 2.304C25.3576 2.13333 25.0056 2.048 24.5896 2.048C24.0563 2.03733 23.6136 2.17067 23.2616 2.448C22.9203 2.72533 22.7496 3.10933 22.7496 3.6C22.7496 4.03733 22.8776 4.37333 23.1336 4.608C23.3896 4.84267 23.7416 5.04 24.1896 5.2C24.6376 5.34933 25.1496 5.52533 25.7256 5.728C26.2803 5.90933 26.7763 6.128 27.2136 6.384C27.651 6.64 27.9976 6.976 28.2536 7.392C28.5203 7.808 28.6536 8.336 28.6536 8.976C28.6536 9.54133 28.5096 10.0693 28.2216 10.56C27.9336 11.04 27.5016 11.4347 26.9256 11.744C26.3496 12.0427 25.6403 12.192 24.7976 12.192ZM33.7287 12V2.176H30.4167V0.799999H38.7207V2.176H35.4247V12H33.7287ZM49.6351 12.192C48.8138 12.192 48.0938 12.048 47.4751 11.76C46.8565 11.472 46.3711 11.0613 46.0191 10.528C45.6778 9.99467 45.5018 9.36 45.4911 8.624H47.2831C47.2938 9.22133 47.5018 9.728 47.9071 10.144C48.3125 10.56 48.8831 10.768 49.6191 10.768C50.2698 10.768 50.7765 10.6133 51.1391 10.304C51.5125 9.984 51.6991 9.57867 51.6991 9.088C51.6991 8.69333 51.6085 8.37333 51.4271 8.128C51.2565 7.88267 51.0165 7.68 50.7071 7.52C50.4085 7.36 50.0618 7.216 49.6671 7.088C49.2725 6.96 48.8565 6.82133 48.4191 6.672C47.5551 6.384 46.9045 6.01067 46.4671 5.552C46.0405 5.09333 45.8271 4.49067 45.8271 3.744C45.8165 3.11467 45.9605 2.56533 46.2591 2.096C46.5685 1.62667 46.9951 1.264 47.5391 1.008C48.0938 0.741333 48.7391 0.608 49.4751 0.608C50.2005 0.608 50.8351 0.741333 51.3791 1.008C51.9338 1.27467 52.3658 1.648 52.6751 2.128C52.9845 2.59733 53.1445 3.14667 53.1551 3.776H51.3631C51.3631 3.488 51.2885 3.216 51.1391 2.96C50.9898 2.69333 50.7711 2.47467 50.4831 2.304C50.1951 2.13333 49.8431 2.048 49.4271 2.048C48.8938 2.03733 48.4511 2.17067 48.0991 2.448C47.7578 2.72533 47.5871 3.10933 47.5871 3.6C47.5871 4.03733 47.7151 4.37333 47.9711 4.608C48.2271 4.84267 48.5791 5.04 49.0271 5.2C49.4751 5.34933 49.9871 5.52533 50.5631 5.728C51.1178 5.90933 51.6138 6.128 52.0511 6.384C52.4885 6.64 52.8351 6.976 53.0911 7.392C53.3578 7.808 53.4911 8.336 53.4911 8.976C53.4911 9.54133 53.3471 10.0693 53.0591 10.56C52.7711 11.04 52.3391 11.4347 51.7631 11.744C51.1871 12.0427 50.4778 12.192 49.6351 12.192ZM56.1454 12V0.799999H63.2654V2.176H57.8414V5.664H62.7854V7.008H57.8414V10.624H63.2654V12H56.1454ZM66.086 12V0.799999H67.782V10.656H72.87V12H66.086ZM75.4954 12V0.799999H77.1914V10.656H82.2794V12H75.4954ZM84.9047 12V0.799999H92.0247V2.176H86.6007V5.664H91.5447V7.008H86.6007V10.624H92.0247V12H84.9047ZM94.8454 12V0.799999H98.7014C99.5867 0.799999 100.312 0.949333 100.877 1.248C101.453 1.54667 101.88 1.952 102.157 2.464C102.435 2.96533 102.573 3.52533 102.573 4.144C102.573 4.83733 102.387 5.46667 102.013 6.032C101.651 6.59733 101.08 7.00267 100.301 7.248L102.685 12H100.717L98.5414 7.488H96.5414V12H94.8454ZM96.5414 6.208H98.6054C99.3734 6.208 99.9334 6.02133 100.285 5.648C100.648 5.27467 100.829 4.78933 100.829 4.192C100.829 3.59467 100.653 3.12 100.301 2.768C99.9494 2.40533 99.3787 2.224 98.5894 2.224H96.5414V6.208ZM109.076 12.192C108.254 12.192 107.534 12.048 106.916 11.76C106.297 11.472 105.812 11.0613 105.46 10.528C105.118 9.99467 104.942 9.36 104.932 8.624H106.724C106.734 9.22133 106.942 9.728 107.348 10.144C107.753 10.56 108.324 10.768 109.06 10.768C109.71 10.768 110.217 10.6133 110.58 10.304C110.953 9.984 111.14 9.57867 111.14 9.088C111.14 8.69333 111.049 8.37333 110.868 8.128C110.697 7.88267 110.457 7.68 110.148 7.52C109.849 7.36 109.502 7.216 109.108 7.088C108.713 6.96 108.297 6.82133 107.86 6.672C106.996 6.384 106.345 6.01067 105.908 5.552C105.481 5.09333 105.268 4.49067 105.268 3.744C105.257 3.11467 105.401 2.56533 105.7 2.096C106.009 1.62667 106.436 1.264 106.98 1.008C107.534 0.741333 108.18 0.608 108.916 0.608C109.641 0.608 110.276 0.741333 110.82 1.008C111.374 1.27467 111.806 1.648 112.116 2.128C112.425 2.59733 112.585 3.14667 112.596 3.776H110.804C110.804 3.488 110.729 3.216 110.58 2.96C110.43 2.69333 110.212 2.47467 109.924 2.304C109.636 2.13333 109.284 2.048 108.868 2.048C108.334 2.03733 107.892 2.17067 107.54 2.448C107.198 2.72533 107.028 3.10933 107.028 3.6C107.028 4.03733 107.156 4.37333 107.412 4.608C107.668 4.84267 108.02 5.04 108.468 5.2C108.916 5.34933 109.428 5.52533 110.004 5.728C110.558 5.90933 111.054 6.128 111.492 6.384C111.929 6.64 112.276 6.976 112.532 7.392C112.798 7.808 112.932 8.336 112.932 8.976C112.932 9.54133 112.788 10.0693 112.5 10.56C112.212 11.04 111.78 11.4347 111.204 11.744C110.628 12.0427 109.918 12.192 109.076 12.192Z" fill="#9A9CAA"/>
</svg>
