<svg width="82" height="13" viewBox="0 0 82 13" fill="none" xmlns="http://www.w3.org/2000/svg">
<path d="M0.562563 12V0.799999H7.58656V2.176H2.25856V5.712H6.67456V7.072H2.25856V12H0.562563ZM10.0501 12V0.799999H17.1701V2.176H11.7461V5.664H16.6901V7.008H11.7461V10.624H17.1701V12H10.0501ZM19.2707 12L23.3987 0.799999H25.2547L29.3507 12H27.5587L26.5987 9.264H22.0227L21.0627 12H19.2707ZM22.5027 7.92H26.1187L24.3107 2.816L22.5027 7.92ZM33.1178 12V2.176H29.8058V0.799999H38.1098V2.176H34.8138V12H33.1178ZM44.6889 12.192C43.8889 12.192 43.1636 12.0373 42.5129 11.728C41.8729 11.408 41.3609 10.9227 40.9769 10.272C40.6036 9.62133 40.4169 8.79467 40.4169 7.792V0.799999H42.1129V7.808C42.1129 8.78933 42.3476 9.50933 42.8169 9.968C43.2863 10.4267 43.9209 10.656 44.7209 10.656C45.5103 10.656 46.1396 10.4267 46.6089 9.968C47.0783 9.50933 47.3129 8.78933 47.3129 7.808V0.799999H49.0089V7.792C49.0089 8.79467 48.8116 9.62133 48.4169 10.272C48.0329 10.9227 47.5103 11.408 46.8489 11.728C46.1983 12.0373 45.4783 12.192 44.6889 12.192ZM51.9844 12V0.799999H55.8404C56.7258 0.799999 57.4511 0.949333 58.0164 1.248C58.5924 1.54667 59.0191 1.952 59.2964 2.464C59.5738 2.96533 59.7124 3.52533 59.7124 4.144C59.7124 4.83733 59.5258 5.46667 59.1524 6.032C58.7898 6.59733 58.2191 7.00267 57.4404 7.248L59.8244 12H57.8564L55.6804 7.488H53.6804V12H51.9844ZM53.6804 6.208H55.7444C56.5124 6.208 57.0724 6.02133 57.4244 5.648C57.7871 5.27467 57.9684 4.78933 57.9684 4.192C57.9684 3.59467 57.7924 3.12 57.4404 2.768C57.0884 2.40533 56.5178 2.224 55.7284 2.224H53.6804V6.208ZM62.5188 12V0.799999H69.6388V2.176H64.2148V5.664H69.1588V7.008H64.2148V10.624H69.6388V12H62.5188ZM72.4594 12V0.799999H76.0914C77.4034 0.799999 78.4808 1.02933 79.3234 1.488C80.1768 1.94667 80.8061 2.59733 81.2114 3.44C81.6274 4.272 81.8354 5.264 81.8354 6.416C81.8354 7.55733 81.6274 8.54933 81.2114 9.392C80.8061 10.224 80.1768 10.8693 79.3234 11.328C78.4808 11.776 77.4034 12 76.0914 12H72.4594ZM74.1554 10.56H76.0274C77.0408 10.56 77.8408 10.3947 78.4274 10.064C79.0248 9.73333 79.4514 9.25867 79.7074 8.64C79.9741 8.02133 80.1074 7.28 80.1074 6.416C80.1074 5.552 79.9741 4.80533 79.7074 4.176C79.4514 3.54667 79.0248 3.06667 78.4274 2.736C77.8408 2.39467 77.0408 2.224 76.0274 2.224H74.1554V10.56Z" fill="#9A9CAA"/>
</svg>
