<svg width="67" height="13" viewBox="0 0 67 13" fill="none" xmlns="http://www.w3.org/2000/svg">
<path d="M0.237563 12V0.799999H1.93356L7.54956 9.232V0.799999H9.24556V12H7.54956L1.93356 3.568V12H0.237563ZM12.3188 12V0.799999H19.4388V2.176H14.0148V5.664H18.9588V7.008H14.0148V10.624H19.4388V12H12.3188ZM24.5474 12.016L21.5234 0.799999H23.3474L25.5714 10.08L28.1314 0.799999H30.0034L32.4834 10.08L34.7074 0.799999H36.5314L33.4594 12H31.4754L29.0274 3.216L26.4994 12L24.5474 12.016ZM38.8876 12V0.799999H46.0076V2.176H40.5836V5.664H45.5276V7.008H40.5836V10.624H46.0076V12H38.8876ZM52.5242 12.192C51.7029 12.192 50.9829 12.048 50.3642 11.76C49.7455 11.472 49.2602 11.0613 48.9082 10.528C48.5669 9.99467 48.3909 9.36 48.3802 8.624H50.1722C50.1829 9.22133 50.3909 9.728 50.7962 10.144C51.2015 10.56 51.7722 10.768 52.5082 10.768C53.1589 10.768 53.6655 10.6133 54.0282 10.304C54.4015 9.984 54.5882 9.57867 54.5882 9.088C54.5882 8.69333 54.4975 8.37333 54.3162 8.128C54.1455 7.88267 53.9055 7.68 53.5962 7.52C53.2975 7.36 52.9509 7.216 52.5562 7.088C52.1615 6.96 51.7455 6.82133 51.3082 6.672C50.4442 6.384 49.7935 6.01067 49.3562 5.552C48.9295 5.09333 48.7162 4.49067 48.7162 3.744C48.7055 3.11467 48.8495 2.56533 49.1482 2.096C49.4575 1.62667 49.8842 1.264 50.4282 1.008C50.9829 0.741333 51.6282 0.608 52.3642 0.608C53.0895 0.608 53.7242 0.741333 54.2682 1.008C54.8229 1.27467 55.2549 1.648 55.5642 2.128C55.8735 2.59733 56.0335 3.14667 56.0442 3.776H54.2522C54.2522 3.488 54.1775 3.216 54.0282 2.96C53.8789 2.69333 53.6602 2.47467 53.3722 2.304C53.0842 2.13333 52.7322 2.048 52.3162 2.048C51.7829 2.03733 51.3402 2.17067 50.9882 2.448C50.6469 2.72533 50.4762 3.10933 50.4762 3.6C50.4762 4.03733 50.6042 4.37333 50.8602 4.608C51.1162 4.84267 51.4682 5.04 51.9162 5.2C52.3642 5.34933 52.8762 5.52533 53.4522 5.728C54.0069 5.90933 54.5029 6.128 54.9402 6.384C55.3775 6.64 55.7242 6.976 55.9802 7.392C56.2469 7.808 56.3802 8.336 56.3802 8.976C56.3802 9.54133 56.2362 10.0693 55.9482 10.56C55.6602 11.04 55.2282 11.4347 54.6522 11.744C54.0762 12.0427 53.3669 12.192 52.5242 12.192ZM61.4553 12V2.176H58.1433V0.799999H66.4473V2.176H63.1513V12H61.4553Z" fill="#9A9CAA"/>
</svg>
