<svg width="83" height="13" viewBox="0 0 83 13" fill="none" xmlns="http://www.w3.org/2000/svg">
<path d="M3.91313 12V2.176H0.601126V0.799999H8.90513V2.176H5.60913V12H3.91313ZM11.2923 12V0.799999H15.1483C16.0336 0.799999 16.7589 0.949333 17.3243 1.248C17.9003 1.54667 18.3269 1.952 18.6043 2.464C18.8816 2.96533 19.0203 3.52533 19.0203 4.144C19.0203 4.83733 18.8336 5.46667 18.4603 6.032C18.0976 6.59733 17.5269 7.00267 16.7483 7.248L19.1323 12H17.1643L14.9883 7.488H12.9883V12H11.2923ZM12.9883 6.208H15.0523C15.8203 6.208 16.3803 6.02133 16.7323 5.648C17.0949 5.27467 17.2763 4.78933 17.2763 4.192C17.2763 3.59467 17.1003 3.12 16.7483 2.768C16.3963 2.40533 15.8256 2.224 15.0363 2.224H12.9883V6.208ZM21.8266 12V0.799999H28.9466V2.176H23.5226V5.664H28.4666V7.008H23.5226V10.624H28.9466V12H21.8266ZM31.7673 12V0.799999H33.4633L39.0793 9.232V0.799999H40.7753V12H39.0793L33.4633 3.568V12H31.7673ZM43.8485 12V0.799999H47.4805C48.7925 0.799999 49.8698 1.02933 50.7125 1.488C51.5658 1.94667 52.1952 2.59733 52.6005 3.44C53.0165 4.272 53.2245 5.264 53.2245 6.416C53.2245 7.55733 53.0165 8.54933 52.6005 9.392C52.1952 10.224 51.5658 10.8693 50.7125 11.328C49.8698 11.776 48.7925 12 47.4805 12H43.8485ZM45.5445 10.56H47.4165C48.4298 10.56 49.2298 10.3947 49.8165 10.064C50.4138 9.73333 50.8405 9.25867 51.0965 8.64C51.3632 8.02133 51.4965 7.28 51.4965 6.416C51.4965 5.552 51.3632 4.80533 51.0965 4.176C50.8405 3.54667 50.4138 3.06667 49.8165 2.736C49.2298 2.39467 48.4298 2.224 47.4165 2.224H45.5445V10.56ZM55.8985 12V0.799999H57.5945V12H55.8985ZM60.6673 12V0.799999H62.3633L67.9792 9.232V0.799999H69.6753V12H67.9792L62.3633 3.568V12H60.6673ZM77.6125 12.192C76.5565 12.192 75.6338 11.952 74.8445 11.472C74.0552 10.992 73.4418 10.32 73.0045 9.456C72.5672 8.592 72.3485 7.584 72.3485 6.432C72.3485 5.29067 72.5725 4.28267 73.0205 3.408C73.4685 2.53333 74.1032 1.85067 74.9245 1.36C75.7565 0.858666 76.7378 0.608 77.8685 0.608C79.1485 0.608 80.2152 0.917333 81.0685 1.536C81.9218 2.15467 82.4765 3.008 82.7325 4.096H80.8125C80.6418 3.49867 80.3058 3.02933 79.8045 2.688C79.3032 2.34667 78.6578 2.176 77.8685 2.176C76.6952 2.176 75.7725 2.55467 75.1005 3.312C74.4285 4.06933 74.0925 5.11467 74.0925 6.448C74.0925 7.78133 74.4232 8.82133 75.0845 9.568C75.7458 10.3147 76.6258 10.688 77.7245 10.688C78.8338 10.688 79.6658 10.3733 80.2205 9.744C80.7858 9.11467 81.1165 8.27733 81.2125 7.232H78.1725V5.92H82.9245V12H81.3725L81.2285 10.352C80.8552 10.9387 80.3858 11.392 79.8205 11.712C79.2552 12.032 78.5192 12.192 77.6125 12.192Z" fill="#272343"/>
</svg>
